<?xml version="1.0" encoding="utf-8"?>
<!-- Generator: Adobe Illustrator 24.0.1, SVG Export Plug-In . SVG Version: 6.00 Build 0)  -->
<svg version="1.0" id="Laag_1" xmlns="http://www.w3.org/2000/svg" xmlns:xlink="http://www.w3.org/1999/xlink" x="0px" y="0px"
	 width="1456.1px" height="746.1px" viewBox="0 0 1456.1 746.1" style="enable-background:new 0 0 1456.1 746.1;"
	 xml:space="preserve">
<style type="text/css">
	.st0{fill:#E83F4B;}
	.st1{fill:#64242F;}
</style>
<g id="logo">
	<path d="M1326.4,387.4l53-87.6h-39l-23.2,39.4c-4,6.8-7.6,13.1-11.1,19.5h-0.8c-3.6-6.8-7.2-13.1-10.8-19.5l-23.1-39.4h-40.2
		l53.4,89.2l-55.8,91.2h39l24.7-41.4c3.2-5.6,8.4-13.9,11.9-21.1h0.8c3.6,7.2,8,15.1,11.6,21.1l24.7,41.4h40.6L1326.4,387.4z"/>
	<path d="M1176.9,364.7c0.1,1.6-0.1,3.2-0.4,4.8h-90.8c4.8-25.1,29.1-43,51.8-43C1161.4,326.5,1176.9,346.8,1176.9,364.7
		 M1213.6,363.9c0.3-33.5-28.3-68.5-78.1-68.5c-41.8,0-89.6,33.5-89.6,94.8c0,56.1,45.4,94.4,96.8,94.4c24.3,0,40.6-4.8,53.4-11.5
		l9.2-38.6c-16.7,11.9-34.7,18.3-57.8,18.3c-42.2,0-62.9-31.5-64.1-53.8h121.3C1204.7,398.9,1213.4,384.9,1213.6,363.9"/>
	<path d="M739.5,413.3c0,22.7-22.7,40.6-41.8,40.6c-14.3,0-25.1-11.5-25.1-24.3c0-13.1,9.6-27.1,31.1-29.1l35.8-3.2L739.5,413.3z
		 M796.1,461.5c-11.5-2-20.3-11.5-20.3-27.9v-72.9c0-42.6-29.1-65.3-69.3-65.3c-21.9,0-42.6,4.8-59,15.5l7.2,29.9
		c13.2-8.8,31.9-14.4,49.8-14.4c25.5,0,35,13.1,35,29.5v11.5l-42.2,4c-30.7,2.8-59.3,22.7-59.3,57.7c0,29.1,22.3,55.4,58.2,55.4
		c19.5,0,37.8-6.4,50.6-23.1c4.3,11.7,14.3,20.4,26.4,23.1L796.1,461.5z"/>
	<path d="M516.2,299.8h-35.4v29.1h35.4V428c0,35.8,26.3,55,58.9,55c7.2,0,12.3-0.4,16.3-1.6l7.2-32.2c-5.6,2-12.3,2.8-19.9,2.8
		c-14.7,0-26.7-8-26.7-22.7V328.9h57.3l6.4-29.1H552v-31h-35.8V299.8z"/>
	<path d="M426.5,364.7c0.1,1.6-0.1,3.2-0.4,4.8h-90.8c4.8-25.1,29.1-43,51.8-43C411,326.5,426.5,346.8,426.5,364.7 M463.2,363.9
		c0.3-33.5-28.3-68.5-78.1-68.5c-41.8,0-89.6,33.5-89.6,94.8c0,56.1,45.4,94.4,96.8,94.4c24.3,0,40.6-4.8,53.4-11.5l9.2-38.6
		c-16.7,11.9-34.7,18.3-57.8,18.3c-42.2,0-62.9-31.5-64.1-53.8h121.3C454.3,398.9,463,384.9,463.2,363.9"/>
	<path d="M231.4,480.2h36.2V353.5c0-33.5-27.1-58.2-63.7-58.2c-33,0-52.6,11.6-64.9,25.5c-9.2-13.5-28.3-25.5-50.6-25.5
		c-28.3,0-41,7.2-55,22.3l-1.6-17.9H0v180.4h36.3V356.7c0-16.3,14.3-29.9,39.8-29.9c26.3,0,39.8,11.9,39.8,29.9v123.5h36.2V356.7
		c0-16.3,14.4-29.9,39.8-29.9c25.9,0,39.4,11.9,39.4,29.9L231.4,480.2z"/>
	<path d="M951.4,194.6c-10-4.1-20.6-6.2-31.4-6.1c-53.4,0-82.8,29.8-82.8,90.1v17.1h-31.4v29.8h31.4v154.9h37.1V325.5h47.3l6.1-29.8
		h-53.4v-28.5c0-24.5,13.5-47.7,38.7-47.7c11,0,22.4,2,31.8,6.5L951.4,194.6z"/>
	<path d="M1030.6,462.5c-11.4-2-24.9-13.5-24.9-30.6V190.1h-37.1v246.7c0,35.5,24.5,47.7,36.7,51L1030.6,462.5z"/>
	<path class="st0" d="M115.9,508.2V585l288.6,161V508.2H115.9z"/>
	<rect x="404.5" y="508.2" class="st1" width="58.7" height="237.9"/>
	<path class="st1" d="M728,555v-46.8H552.4v144.8L728,555z"/>
	<rect x="516.7" y="508.2" class="st0" width="35.7" height="144.8"/>
	<path class="st0" d="M115.9,161v76.9h288.6V0L115.9,161z"/>
	<rect x="404.5" y="0" class="st1" width="58.7" height="237.9"/>
	<path class="st1" d="M728,191.1v46.8H552.4V93.1L728,191.1z"/>
	<rect x="516.7" y="93.1" class="st0" width="35.7" height="144.8"/>
	<path d="M1456.1,194.1c-1.9-1.2-4-2.1-6.2-2.7c-2.8-0.8-5.7-1.2-8.6-1.2c-10.2,0-16.8,4.9-16.8,12.5c0,4.9,3.2,8.8,10.2,12.1l8.4,4
		c3.7,1.8,5.2,3.8,5.2,6.9c0,3.9-3.2,6.2-8.6,6.2c-2.6,0-5.2-0.5-7.6-1.5c-2.2-1-4.2-2.2-6-3.7l-3.3,6.3c2.1,1.4,4.3,2.5,6.6,3.5
		c3,1,6.2,1.5,9.4,1.4c10.4,0,16.8-4.9,16.8-13.1c0-5.7-2.8-8.9-11.5-13.1c-9-4.3-10.5-5.2-11.8-7.2c-0.4-0.7-0.6-1.6-0.6-2.4
		c0-3.6,3.6-5.7,9.5-5.7c2.2,0,4.4,0.3,6.4,1c2.1,0.5,4.1,1.5,5.8,2.8L1456.1,194.1z M1393.3,204.4c0.1,2.2-0.8,4.4-2.5,5.9
		c-2,1.7-3,1.9-7.7,1.9h-7.2V197h7.2c5.3,0,5.9,0.1,7.4,1.3C1392.4,199.7,1393.5,202,1393.3,204.4 M1403.2,237l-12.7-19.4
		c6.4-1.1,10.8-6.5,10.8-13.6c0-8.5-6.1-13.1-17.1-13.1h-15.5V237h7.3v-18.8h6.7l12.1,18.8H1403.2z M1337.2,214
		c0,9.8-7.9,17.8-17.7,17.8s-17.8-7.9-17.8-17.7s7.9-17.8,17.7-17.8c0,0,0.1,0,0.1,0c9.6-0.2,17.5,7.5,17.7,17.1
		C1337.2,213.6,1337.2,213.8,1337.2,214 M1345,214c0-13.8-10.8-23.9-25.5-23.9s-25.5,10.1-25.5,23.9s10.7,23.9,25.5,23.9
		S1345,227.9,1345,214 M1264.3,214c0,9.8-7.9,17.8-17.7,17.8s-17.8-7.9-17.8-17.7s7.9-17.8,17.7-17.8c0,0,0.1,0,0.1,0
		c9.6-0.2,17.5,7.5,17.7,17.1C1264.2,213.6,1264.2,213.8,1264.3,214 M1272,214c0-13.8-10.8-23.9-25.5-23.9S1221,200.2,1221,214
		s10.7,23.9,25.6,23.9S1272,227.9,1272,214 M1190.2,213.9c0,5.2-2.4,10.7-6.1,13.7c-3.2,2.5-6.4,3.4-13,3.4h-8.5v-34h9.1
		c6.4,0,9.4,0.8,12.3,3.2C1188,203.6,1190.3,208.6,1190.2,213.9 M1197.9,214c0-5.8-2.8-12.8-6.6-16.7c-4.3-4.3-10.2-6.4-19.1-6.4
		h-17V237h17c9,0,14.8-2,19-6.4C1195.4,226.1,1197.8,220.1,1197.9,214"/>
</g>
</svg>
